HIERARCHY
ROOT root
{
	OFFSET	0	13.1	24.9
	CHANNELS 6  Xposition Yposition Zposition Xrotation Yrotation Zrotation
	JOINT spine_1
	{
		OFFSET	0	9.99999	0
		CHANNELS 3  Xrotation Yrotation Zrotation
		JOINT spine_2
		{
			OFFSET	0	112	-10
			CHANNELS 3  Xrotation Yrotation Zrotation
			JOINT spine_3
			{
				OFFSET	0	206.5	19.3
				CHANNELS 3  Xrotation Yrotation Zrotation
				JOINT spine_4
				{
					OFFSET	0	110.4	14.6
					CHANNELS 3  Xrotation Yrotation Zrotation
					JOINT neck_1
					{
						OFFSET	0	71.8	-50.3
						CHANNELS 3  Xrotation Yrotation Zrotation
						JOINT neck_2
						{
							OFFSET	0	86.2	-25.8
							CHANNELS 3  Xrotation Yrotation Zrotation
							JOINT head_ee
							{
								OFFSET	0	179.8	-8.7
								CHANNELS 3  Xrotation Yrotation Zrotation
								End Site
								{
									OFFSET	1	0	0
								}
							}
						}
					}
					JOINT left_clavicle
					{
						OFFSET	-43.2	22.4	-70.8
						CHANNELS 3  Xrotation Yrotation Zrotation
						JOINT left_shoulder
						{
							OFFSET	-93.9	-5.79999	48.7
							CHANNELS 3  Xrotation Yrotation Zrotation
							JOINT left_elbow
							{
								OFFSET	-291.4	-30.8	15.2
								CHANNELS 3  Xrotation Yrotation Zrotation
								JOINT left_lowarm_twist
								{
									OFFSET	-110.7	-3.89999	13.6
									CHANNELS 3  Xrotation Yrotation Zrotation
									JOINT left_hand
									{
										OFFSET	-110.7	-3.89999	13.6
										CHANNELS 3  Xrotation Yrotation Zrotation
										JOINT left_ee
										{
											OFFSET	-80.8	-5.10001	12.1
											CHANNELS 3  Xrotation Yrotation Zrotation
											End Site
											{
												OFFSET	1	0	0
											}
										}
									}
								}
							}
						}
					}
					JOINT right_clavicle
					{
						OFFSET	43.2	22.4	-70.8
						CHANNELS 3  Xrotation Yrotation Zrotation
						JOINT right_shoulder
						{
							OFFSET	93.9	-5.79999	48.7
							CHANNELS 3  Xrotation Yrotation Zrotation
							JOINT right_elbow
							{
								OFFSET	291.4	-30.8	15.2
								CHANNELS 3  Xrotation Yrotation Zrotation
								JOINT right_lowarm_twist
								{
									OFFSET	110.7	-3.89999	13.6
									CHANNELS 3  Xrotation Yrotation Zrotation
									JOINT right_hand
									{
										OFFSET	110.7	-3.89999	13.6
										CHANNELS 3  Xrotation Yrotation Zrotation
										JOINT right_ee
										{
											OFFSET	80.8	-5.10001	12.1
											CHANNELS 3  Xrotation Yrotation Zrotation
											End Site
											{
												OFFSET	1	0	0
											}
										}
									}
								}
							}
						}
					}
				}
			}
		}
	}
	JOINT left_hip
	{
		OFFSET	-82.8	-127.5	0.300001
		CHANNELS 3  Xrotation Yrotation Zrotation
		JOINT left_knee
		{
			OFFSET	-28.2	-396.7	2.2
			CHANNELS 3  Xrotation Yrotation Zrotation
			JOINT left_ankle
			{
				OFFSET	-11.7	-411.3	35.4
				CHANNELS 3  Xrotation Yrotation Zrotation
				JOINT left_toes
				{
					OFFSET	0	-60	-88.6
					CHANNELS 3  Xrotation Yrotation Zrotation
					JOINT left_foot_ee
					{
						OFFSET	-22.5	-16.5	-42.2
						CHANNELS 3  Xrotation Yrotation Zrotation
						End Site
						{
							OFFSET	1	0	0
						}
					}
				}
			}
		}
	}
	JOINT right_hip
	{
		OFFSET	82.8	-127.5	0.300001
		CHANNELS 3  Xrotation Yrotation Zrotation
		JOINT right_knee
		{
			OFFSET	28.2	-396.7	2.2
			CHANNELS 3  Xrotation Yrotation Zrotation
			JOINT right_ankle
			{
				OFFSET	11.7	-411.3	35.4
				CHANNELS 3  Xrotation Yrotation Zrotation
				JOINT right_toes
				{
					OFFSET	0	-60	-88.6
					CHANNELS 3  Xrotation Yrotation Zrotation
					JOINT right_foot_ee
					{
						OFFSET	22.5	-16.5	-42.2
						CHANNELS 3  Xrotation Yrotation Zrotation
						End Site
						{
							OFFSET	1	0	0
						}
					}
				}
			}
		}
	}
}
MOTION
Frames: 13
Frame Time: 0.02
2555.70568699 773.546 -1548.5782539 23.6655369434 72.0283045628 -28.5095767291 -2.34803 0.623908 2.77724 -2.34385 0.445992 2.81127 -2.3166 -0.269625 2.83361 -2.32776 0.18109 2.84064 -10.4825 12.1204 -8.13123 -10.5771 28.2456 -4.73494 -0.0 0.0 -0.0 4.14387 8.11697 8.29914 -25.8027 -26.0482 63.958 0.258376 -7.2939 0.0164682 26.1391 0.16946 -3.30593 0.264421 25.113 11.4868 -0.0 0.0 -0.0 5.44126 24.7124 -8.95314 4.60554 33.1205 -64.7108 1.20188 30.7675 -0.330698 -11.4802 0.542917 -1.36125 1.63349 -2.82073 -12.0961 0.0 0.0 0.0 3.01211 8.29577 2.02473 -37.6331 -0.323096 5.66407 -24.0822 23.4598 3.74698 39.6578 -0.0 -0.0 -0.0 0.0 -0.0 14.6306 35.8511 -5.2878 -13.2629 -0.315058 -2.00645 -7.602 7.51129 -1.17584 -18.0511 0.0 0.0 0.0 0.0 0.0 
2548.98386383 777.194 -1543.65335101 21.1116699837 72.6165932789 -26.3650683302 -2.29882 0.779374 2.999 -2.29401 0.587052 3.04246 -2.25642 -0.18732 3.09286 -2.26964 0.303253 3.08366 -10.2406 12.2136 -8.02708 -10.3183 28.3612 -4.67449 -0.0 0.0 -0.0 4.09229 8.47429 8.21715 -26.4588 -26.1431 64.614 0.23257 -6.57214 0.0133532 26.5959 0.158961 -3.36334 0.445609 26.1346 12.8751 -0.0 0.0 -0.0 5.578 24.6866 -9.25344 7.09789 32.3943 -63.9676 1.38466 34.4452 -0.429243 -11.1562 0.523894 -1.32442 1.41555 -2.229 -10.3887 0.0 0.0 0.0 4.50372 8.57472 1.1866 -32.7351 -0.070375 4.95552 -23.221 23.4173 3.61209 39.5699 -0.0 -0.0 -0.0 0.0 -0.0 12.0448 36.0721 -3.35405 -11.8255 -0.303477 -1.78623 -7.64044 7.35655 -1.18094 -17.7605 0.0 0.0 0.0 0.0 0.0 
2540.5720844 769.179 -1536.80050249 23.1842004938 72.8992482142 -29.0275509736 -2.46603 0.87959 3.1403 -2.4608 0.678087 3.18983 -2.41562 -0.144708 3.25783 -2.43024 0.371345 3.23985 -9.79323 12.0771 -7.8231 -9.82829 27.9845 -4.6355 -0.0 0.0 -0.0 4.04445 8.88735 8.14381 -27.207 -26.1474 65.2079 0.212423 -6.00716 0.0111459 26.8153 0.153756 -3.39088 0.607352 27.1878 14.1416 -0.0 0.0 -0.0 5.68419 24.3394 -9.51896 8.81538 31.8401 -63.4843 1.55453 37.596 -0.529172 -10.8184 0.504277 -1.2859 1.12426 -1.78552 -8.25053 0.0 0.0 0.0 5.66482 8.82572 0.924008 -28.3096 0.105091 4.2992 -22.6424 23.7944 3.52802 39.2824 -0.0 -0.0 -0.0 0.0 -0.0 10.1886 36.1816 -2.01981 -9.06903 -0.26583 -1.36498 -6.89762 7.29762 -1.06445 -17.5574 0.0 0.0 0.0 0.0 0.0 
2536.96395918 770.241 -1533.97878625 21.8271336359 72.5727607608 -27.8489512301 -2.49769 0.937378 3.23112 -2.49218 0.729988 3.28414 -2.44235 -0.119657 3.36208 -2.45789 0.412521 3.33885 -9.43921 11.9843 -7.65715 -9.44291 27.7091 -4.5933 -0.0 0.0 -0.0 4.00819 9.20197 8.08858 -27.6613 -26.1462 65.6008 0.205404 -5.81007 0.0104235 26.9971 0.149363 -3.41368 0.728519 27.9358 15.0641 -0.0 0.0 -0.0 5.77026 23.9503 -9.74435 10.081 31.3318 -63.1131 1.69397 39.9981 -0.616563 -10.561 0.489489 -1.25649 0.913329 -1.42951 -6.69218 0.0 0.0 0.0 6.45673 8.98095 0.634904 -25.2101 0.197534 3.83256 -22.241 24.1131 3.47052 39.0828 -0.0 -0.0 -0.0 0.0 -0.0 8.83069 36.2328 -1.05588 -7.14353 -0.227528 -1.072 -6.3787 7.20325 -0.982984 -17.3975 0.0 0.0 0.0 0.0 0.0 
2396.69903616 760.254 -1537.79103678 19.6028915791 73.212365166 -23.0498105681 -2.08266 0.778063 1.99207 -2.08069 0.649753 2.03752 -2.05458 0.13077 2.13457 -2.06064 0.466171 2.08717 -0.32447 16.3894 1.30654 0.25083 28.3008 3.07769 -0.0 0.0 -0.0 2.01864 16.5437 5.09549 -27.35 -24.6742 61.4042 0.774997 -21.0023 0.143655 18.58 0.276289 -2.34696 -0.417805 21.8675 6.31528 -0.0 0.0 -0.0 5.9887 14.9423 -10.9619 -6.75179 24.6384 -62.649 3.15056 57.3383 -1.72298 -9.91142 0.452748 -1.18195 0.127082 8.27462 2.65583 0.0 0.0 0.0 -6.77164 16.1967 -0.653166 2.70845 -0.120972 -0.397949 -22.6586 28.6745 3.62715 36.2115 -0.0 -0.0 -0.0 0.0 -0.0 -2.84937 27.6767 0.742799 -2.72512 -0.102571 -0.405599 11.7509 13.6986 1.78344 -14.1913 0.0 0.0 0.0 0.0 0.0 
2389.0545982 766.378 -1539.66037019 20.1661603589 73.1237686934 -23.6116750371 -1.94387 0.734751 1.91944 -1.94203 0.611147 1.96228 -1.91841 0.116629 2.0519 -1.92402 0.439159 2.00776 -0.957803 16.463 1.95838 -0.450458 28.0487 3.91979 -0.0 0.0 -0.0 1.97335 17.2788 5.06997 -26.0432 -24.6396 60.781 0.888937 -23.7662 0.187058 17.7021 0.280472 -2.23491 -0.739025 20.761 3.97608 -0.0 0.0 -0.0 6.14924 15.3252 -11.2803 -8.99495 24.6556 -62.5351 2.74401 53.6494 -1.38778 -10.1288 0.464951 -1.20694 0.169681 6.2466 1.50432 0.0 0.0 0.0 -7.44541 16.32 -0.482124 2.31928 -0.102432 -0.341119 -21.5496 28.8481 3.45259 36.2368 -0.0 -0.0 -0.0 0.0 -0.0 -3.99115 26.5518 1.17949 -2.79353 -0.104898 -0.415841 11.1513 12.39 1.68193 -14.0835 0.0 0.0 0.0 0.0 0.0 
2388.84773988 766.378 -1538.35400928 20.3747540046 73.2941943384 -23.8295579126 -1.94387 0.734751 1.91944 -1.94203 0.611147 1.96228 -1.91841 0.116629 2.0519 -1.92402 0.439159 2.00776 -0.957803 16.463 1.95838 -0.450458 28.0487 3.91979 -0.0 0.0 -0.0 1.97335 17.2788 5.06997 -26.0432 -24.6396 60.781 0.888937 -23.7662 0.187058 17.7021 0.280472 -2.23491 -0.739025 20.761 3.97608 -0.0 0.0 -0.0 6.14924 15.3252 -11.2803 -8.99495 24.6556 -62.5351 2.74401 53.6494 -1.38778 -10.1288 0.464951 -1.20694 0.169681 6.2466 1.50432 0.0 0.0 0.0 -7.44541 16.32 -0.482124 2.31928 -0.102432 -0.341119 -21.5496 28.8481 3.45259 36.2368 -0.0 -0.0 -0.0 0.0 -0.0 -3.99115 26.5518 1.17949 -2.79353 -0.104898 -0.415841 11.1513 12.39 1.68193 -14.0835 0.0 0.0 0.0 0.0 0.0 
2388.49968861 766.378 -1536.09266553 20.7459674525 73.5884528328 -24.216830861 -1.94387 0.734751 1.91944 -1.94203 0.611147 1.96228 -1.91841 0.116629 2.0519 -1.92402 0.439159 2.00776 -0.957803 16.463 1.95838 -0.450458 28.0487 3.91979 -0.0 0.0 -0.0 1.97335 17.2788 5.06997 -26.0432 -24.6396 60.781 0.888937 -23.7662 0.187058 17.7021 0.280472 -2.23491 -0.739025 20.761 3.97608 -0.0 0.0 -0.0 6.14924 15.3252 -11.2803 -8.99495 24.6556 -62.5351 2.74401 53.6494 -1.38778 -10.1288 0.464951 -1.20694 0.169681 6.2466 1.50432 0.0 0.0 0.0 -7.44541 16.32 -0.482124 2.31928 -0.102432 -0.341119 -21.5496 28.8481 3.45259 36.2368 -0.0 -0.0 -0.0 0.0 -0.0 -3.99115 26.5518 1.17949 -2.79353 -0.104898 -0.415841 11.1513 12.39 1.68193 -14.0835 0.0 0.0 0.0 0.0 0.0 
2388.36490061 766.378 -1535.19403813 20.8971691744 73.7051173927 -24.3744073809 -1.94387 0.734751 1.91944 -1.94203 0.611147 1.96228 -1.91841 0.116629 2.0519 -1.92402 0.439159 2.00776 -0.957803 16.463 1.95838 -0.450458 28.0487 3.91979 -0.0 0.0 -0.0 1.97335 17.2788 5.06997 -26.0432 -24.6396 60.781 0.888937 -23.7662 0.187058 17.7021 0.280472 -2.23491 -0.739025 20.761 3.97608 -0.0 0.0 -0.0 6.14924 15.3252 -11.2803 -8.99495 24.6556 -62.5351 2.74401 53.6494 -1.38778 -10.1288 0.464951 -1.20694 0.169681 6.2466 1.50432 0.0 0.0 0.0 -7.44541 16.32 -0.482124 2.31928 -0.102432 -0.341119 -21.5496 28.8481 3.45259 36.2368 -0.0 -0.0 -0.0 0.0 -0.0 -3.99115 26.5518 1.17949 -2.79353 -0.104898 -0.415841 11.1513 12.39 1.68193 -14.0835 0.0 0.0 0.0 0.0 0.0 
2388.68812221 766.378 -1537.32717395 20.541695667 73.4279311688 -24.0037950735 -1.94387 0.734751 1.91944 -1.94203 0.611147 1.96228 -1.91841 0.116629 2.0519 -1.92402 0.439159 2.00776 -0.957803 16.463 1.95838 -0.450458 28.0487 3.91979 -0.0 0.0 -0.0 1.97335 17.2788 5.06997 -26.0432 -24.6396 60.781 0.888937 -23.7662 0.187058 17.7021 0.280472 -2.23491 -0.739025 20.761 3.97608 -0.0 0.0 -0.0 6.14924 15.3252 -11.2803 -8.99495 24.6556 -62.5351 2.74401 53.6494 -1.38778 -10.1288 0.464951 -1.20694 0.169681 6.2466 1.50432 0.0 0.0 0.0 -7.44541 16.32 -0.482124 2.31928 -0.102432 -0.341119 -21.5496 28.8481 3.45259 36.2368 -0.0 -0.0 -0.0 0.0 -0.0 -3.99115 26.5518 1.17949 -2.79353 -0.104898 -0.415841 11.1513 12.39 1.68193 -14.0835 0.0 0.0 0.0 0.0 0.0 
2388.59663123 766.378 -1536.73087147 20.6398725883 73.505503748 -24.1062062001 -1.94387 0.734751 1.91944 -1.94203 0.611147 1.96228 -1.91841 0.116629 2.0519 -1.92402 0.439159 2.00776 -0.957803 16.463 1.95838 -0.450458 28.0487 3.91979 -0.0 0.0 -0.0 1.97335 17.2788 5.06997 -26.0432 -24.6396 60.781 0.888937 -23.7662 0.187058 17.7021 0.280472 -2.23491 -0.739025 20.761 3.97608 -0.0 0.0 -0.0 6.14924 15.3252 -11.2803 -8.99495 24.6556 -62.5351 2.74401 53.6494 -1.38778 -10.1288 0.464951 -1.20694 0.169681 6.2466 1.50432 0.0 0.0 0.0 -7.44541 16.32 -0.482124 2.31928 -0.102432 -0.341119 -21.5496 28.8481 3.45259 36.2368 -0.0 -0.0 -0.0 0.0 -0.0 -3.99115 26.5518 1.17949 -2.79353 -0.104898 -0.415841 11.1513 12.39 1.68193 -14.0835 0.0 0.0 0.0 0.0 0.0 
2387.79742794 766.378 -1531.25339114 21.5863356801 74.2148441786 -25.0914828933 -1.94387 0.734751 1.91944 -1.94203 0.611147 1.96228 -1.91841 0.116629 2.0519 -1.92402 0.439159 2.00776 -0.957803 16.463 1.95838 -0.450458 28.0487 3.91979 -0.0 0.0 -0.0 1.97335 17.2788 5.06997 -26.0432 -24.6396 60.781 0.888937 -23.7662 0.187058 17.7021 0.280472 -2.23491 -0.739025 20.761 3.97608 -0.0 0.0 -0.0 6.14924 15.3252 -11.2803 -8.99495 24.6556 -62.5351 2.74401 53.6494 -1.38778 -10.1288 0.464951 -1.20694 0.169681 6.2466 1.50432 0.0 0.0 0.0 -7.44541 16.32 -0.482124 2.31928 -0.102432 -0.341119 -21.5496 28.8481 3.45259 36.2368 -0.0 -0.0 -0.0 0.0 -0.0 -3.99115 26.5518 1.17949 -2.79353 -0.104898 -0.415841 11.1513 12.39 1.68193 -14.0835 0.0 0.0 0.0 0.0 0.0 
2381.44841256 768.838 -1546.03455617 23.1366507225 73.8537158171 -26.9873029426 -1.73241 0.601621 1.74758 -1.73085 0.489217 1.7823 -1.71358 0.0485688 1.84757 -1.71818 0.339699 1.81673 -3.71031 16.0237 3.25218 -3.44936 26.8317 5.79935 -0.0 0.0 -0.0 1.70367 21.0609 4.90126 -23.581 -24.0333 57.9388 1.27023 -32.1782 0.366387 14.0335 0.279365 -1.76643 -1.52624 16.3269 -2.70922 -0.0 0.0 -0.0 6.29751 15.857 -11.5627 -10.7395 24.4441 -61.7326 2.17293 47.1013 -0.947192 -9.99046 0.457173 -1.19104 0.121677 1.3168 -0.259208 0.0 0.0 0.0 -8.15734 16.371 0.726942 2.06949 -0.0907363 -0.304579 -19.2044 28.9695 3.07657 36.9433 -0.0 -0.0 -0.0 0.0 -0.0 -5.13624 21.7096 1.87257 -3.29902 -0.121704 -0.491598 10.2951 9.01013 1.52756 -12.9633 0.0 0.0 0.0 0.0 0.0 
